# xmcd
#
# Track frame offsets:
#	180
#	17165
#	29979
#	42404
#	52616
#	69343
#	91356
#	110643
#	133073
#	144504
#
# Disc length: 2092 seconds
#
# Revision: 1
# Processed by: cddbd v1.5.1PL0 Copyright (c) Steve Scherf et al.
# Submitted via: audiograbber 1.81.02
#
DISCID=8c082a0a
DTITLE=Harold Batters - The Best of Betters Volume2
DYEAR=1900
DGENRE=
TTITLE0=Ram-Bunk-Shush
TTITLE1=Stand By Me
TTITLE2=Do Anything You Wanna Pt1
TTITLE3=Do Anything You Wanna Pt2
TTITLE4=Georgia On My Mind
TTITLE5=Moanin'
TTITLE6=Ebb Tide
TTITLE7=Girl From Ipanema
TTITLE8=Twist and Shout
TTITLE9=Hello Dolly
EXTD=
EXTT0=
EXTT1=
EXTT2=
EXTT3=
EXTT4=
EXTT5=
EXTT6=
EXTT7=
EXTT8=
EXTT9=
PLAYORDER=
